<?xml version="1.0" encoding="utf-8"?>
<!-- Generator: Adobe Illustrator 21.0.0, SVG Export Plug-In . SVG Version: 6.00 Build 0)  -->
<svg version="1.1" id="Layer_1" xmlns="http://www.w3.org/2000/svg" xmlns:xlink="http://www.w3.org/1999/xlink" x="0px" y="0px"
	 viewBox="0 0 500 500" style="enable-background:new 0 0 500 500;" xml:space="preserve">
<style type="text/css">
	.st0{fill:#F26642;}
	.st1{fill:#FFFFFF;stroke:#F26642;stroke-miterlimit:10;}
	.st2{fill:#FFFFFF;stroke:#FFFFFF;stroke-width:0.25;stroke-miterlimit:10;}
</style>
<g>
	<g id="XMLID_43_">
		
			<image style="overflow:visible;opacity:0.1;" width="514" height="513" xlink:href="5F56E990.png"  transform="matrix(1 0 0 1 -6 -4)">
		</image>
		<g>
			<g>
				<g id="XMLID_13_">
					<path class="st0" d="M486.5,497.9H15.7c-6.6,0-12-5.4-12-12V15c0-6.6,5.4-12,12-12h470.9c6.6,0,12,5.4,12,12v470.9
						C498.5,492.5,493.1,497.9,486.5,497.9z"/>
				</g>
			</g>
		</g>
	</g>
	<g id="XMLID_5345_">
		<g>
			<path id="XMLID_168_" class="st1" d="M272.6,190.2c0-0.3,0-0.6,0-0.9c-0.2-2.3-1.9-3.9-4.2-3.9c-11.5,0-22.9,0-34.4,0
				c-2.4,0-4.1,1.6-4.3,4c0,0.2,0,0.4,0,0.8v104.2l0,16.5c0,2.9,1.7,4.6,4.6,4.6c4.4,0,8.7,0,13.1,0c6.9,0,13.8,0,20.7,0
				c0.4,0,0.9,0,1.5-0.2c1.2-0.3,3.1-1.3,3.1-4.6l0-65.8l0-54.5V190.2z M238,285.3V237h26.1v48.3H238z M264.2,293.7v13.4H238v-13.4
				H264.2z M264.2,225.6v3H238v-3H264.2z M238,217.2v-3h26.2v3H238z M238,205.7v-12h26.2v12H238z"/>
			<path id="XMLID_161_" class="st1" d="M331.9,189.7c0-2.6-1.8-4.3-4.3-4.3c-11.4,0-22.9,0-34.3,0c-2.3,0-4,1.5-4.2,3.9
				c0,0.4,0,0.8,0,1.2l0,107.9c0,4.1,0,8.3,0,12.4c0,3,1.7,4.7,4.7,4.7l25,0h8.3c3.2,0,4.8-1.6,4.8-4.8V194.2l0-1.4
				C331.9,191.8,331.9,190.8,331.9,189.7z M323.6,293.7v13.4h-26.2v-13.4H323.6z M323.6,237.1v48.2h-26.2v-48.2H323.6z M297.4,228.6
				v-3h26.2v3H297.4z M323.6,214.1v3h-26.2v-3H323.6z M323.6,193.8v11.9h-26.2v-11.9H323.6z"/>
			<path id="XMLID_154_" class="st1" d="M213.2,190.1c0-0.3,0-0.5,0-0.8c-0.2-2.3-1.9-3.9-4.2-3.9c-11.5,0-23,0-34.5,0
				c-2.4,0-4.2,1.7-4.2,4.2l0,121.3l0,0.4c0.1,2.4,1.8,4.2,4.2,4.2c5.8,0,11.6,0,17.4,0c5.7,0,11.4,0,17,0c2.3,0,4-1.5,4.2-3.9
				c0-0.4,0-0.7,0-1.2l0-19.2l0-47.4c0-5.1,0-10.2,0-15.3c0-2.8,0-5.5,0-8.3c0-3.4,0-6.8,0-10.3c0-4.8,0-9.6,0-14.5L213.2,190.1z
				 M178.6,205.7v-12h26.2v12H178.6z M178.6,228.6v-3h26.2v3H178.6z M204.8,293.7v13.4h-26.2v-13.4H204.8z M204.8,237.1v48.2h-26.2
				v-48.2H204.8z M178.6,217.2v-3.1h26.2v3.1H178.6z"/>
		</g>
	</g>
</g>
<g id="XMLID_6482_">
	<path class="st2" d="M143.3,376.1l-3.1,7.8c-0.2,0.6-0.7,1-1.4,1c-0.8,0-1.4-0.7-1.4-1.4c0-0.2,0-0.5,0.1-0.6l10.4-26.3
		c0.2-0.5,0.6-1,1.4-1c0.7,0,1.2,0.5,1.4,1l10.4,26.3c0.1,0.2,0.1,0.5,0.1,0.6c0,0.8-0.6,1.4-1.5,1.4c-0.7,0-1.2-0.4-1.4-1l-3.1-7.8
		H143.3z M149.3,360.5l-5,13h10.1L149.3,360.5z"/>
	<path class="st2" d="M180.3,381.9c0.8,0,1.4,0.6,1.4,1.4c0,0.8-0.6,1.4-1.4,1.4h-13.1c-0.8,0-1.4-0.6-1.4-1.4v-26.1
		c0-0.8,0.6-1.4,1.4-1.4s1.4,0.6,1.4,1.4v24.8H180.3z"/>
	<path class="st2" d="M200.8,381.9c0.8,0,1.4,0.6,1.4,1.4c0,0.8-0.6,1.4-1.4,1.4h-13.1c-0.8,0-1.4-0.6-1.4-1.4v-26.1
		c0-0.8,0.6-1.4,1.4-1.4s1.4,0.6,1.4,1.4v24.8H200.8z"/>
	<path class="st2" d="M225.5,358c-4.5,0-6.2,2.2-6.2,4.6c0,7.1,16.1,4,16.1,14.3c0,5.3-3.7,8.3-10.2,8.3c-4.9,0-8.5-2.5-9.9-5.2
		c-0.2-0.3-0.2-0.5-0.2-0.8c0-0.8,0.6-1.4,1.4-1.4c0.5,0,0.9,0.3,1.2,0.7c1.4,2.2,3.8,4,7.6,4c4.7,0,7.3-1.9,7.3-5.6
		c0-8-16.1-4.2-16.1-14.3c0-3.9,2.9-7.3,9.1-7.3c4,0,7.3,1.7,9.1,4.4c0.2,0.3,0.3,0.5,0.3,0.8c0,0.8-0.6,1.4-1.4,1.4
		c-0.4,0-0.8-0.1-1.1-0.6C231.1,359.8,229.1,358,225.5,358z"/>
	<path class="st2" d="M238.4,358.7c-0.8,0-1.4-0.6-1.4-1.4c0-0.8,0.6-1.4,1.4-1.4h18.1c0.8,0,1.4,0.6,1.4,1.4c0,0.8-0.6,1.4-1.4,1.4
		h-7.6v24.8c0,0.8-0.6,1.4-1.4,1.4s-1.4-0.6-1.4-1.4v-24.8H238.4z"/>
	<path class="st2" d="M259.5,370.3c0-10.1,5-14.9,13.3-14.9s13.3,4.9,13.3,14.9c0,10-5,14.9-13.3,14.9S259.5,380.3,259.5,370.3z
		 M262.5,370.3c0,8.3,3.8,12.3,10.3,12.3c6.5,0,10.3-4,10.3-12.3c0-8.3-3.8-12.3-10.3-12.3C266.3,358,262.5,361.9,262.5,370.3z"/>
	<path class="st2" d="M294.3,383.5c0,0.8-0.6,1.4-1.4,1.4s-1.4-0.6-1.4-1.4v-26.1c0-0.8,0.6-1.4,1.4-1.4h8.5c4.7,0,8.1,3.6,8.1,8.1
		c0,4.4-3,7.9-7.6,8.1l7.8,10.4c0.2,0.3,0.3,0.6,0.3,0.9c0,0.8-0.6,1.4-1.4,1.4c-0.4,0-0.9-0.2-1.2-0.7l-8.6-12h-4.3V383.5z
		 M294.3,369.6h7.1c3,0,5.1-2.4,5.1-5.5c0-3.1-2.2-5.5-5.2-5.5h-7V369.6z"/>
	<path class="st2" d="M317.5,383.5c0,0.8-0.6,1.4-1.4,1.4s-1.4-0.7-1.4-1.4v-26.4c0-0.8,0.6-1.4,1.4-1.4s1.4,0.7,1.4,1.4V383.5z"/>
	<path class="st2" d="M325.7,384.6c-0.8,0-1.4-0.6-1.4-1.4v-25.7c0-0.8,0.6-1.4,1.4-1.4h13.7c0.7,0,1.3,0.6,1.3,1.3
		s-0.6,1.3-1.3,1.3h-12.2v10.3h9.4c0.7,0,1.3,0.6,1.3,1.3s-0.6,1.3-1.3,1.3h-9.4v10.5h12.7c0.7,0,1.3,0.6,1.3,1.3s-0.6,1.3-1.3,1.3
		H325.7z"/>
	<path class="st2" d="M354.9,358c-4.5,0-6.2,2.2-6.2,4.6c0,7.1,16.1,4,16.1,14.3c0,5.3-3.7,8.3-10.2,8.3c-4.9,0-8.5-2.5-9.9-5.2
		c-0.2-0.3-0.2-0.5-0.2-0.8c0-0.8,0.6-1.4,1.4-1.4c0.5,0,0.9,0.3,1.2,0.7c1.4,2.2,3.8,4,7.6,4c4.7,0,7.3-1.9,7.3-5.6
		c0-8-16.1-4.2-16.1-14.3c0-3.9,2.9-7.3,9.1-7.3c4,0,7.3,1.7,9.1,4.4c0.2,0.3,0.3,0.5,0.3,0.8c0,0.8-0.6,1.4-1.4,1.4
		c-0.4,0-0.8-0.1-1.1-0.6C360.5,359.8,358.5,358,354.9,358z"/>
</g>
</svg>
