<?xml version="1.0" encoding="utf-8"?>
<!-- Generator: Adobe Illustrator 21.0.0, SVG Export Plug-In . SVG Version: 6.00 Build 0)  -->
<svg version="1.1" id="Layer_1" xmlns="http://www.w3.org/2000/svg" xmlns:xlink="http://www.w3.org/1999/xlink" x="0px" y="0px"
	 viewBox="0 0 500 500" style="enable-background:new 0 0 500 500;" xml:space="preserve">
<style type="text/css">
	.st0{fill:#221F20;}
	.st1{fill:#FFFFFF;}
	.st2{fill:#FFFFFF;stroke:#FFFFFF;stroke-width:0.75;stroke-miterlimit:10;}
</style>
<g>
	<g id="XMLID_6966_">
		
			<image style="overflow:visible;opacity:0.1;" width="518" height="518" xlink:href="6CBDE3ED.png"  transform="matrix(1 0 0 1 -9 -6)">
		</image>
		<g>
			<path class="st0" d="M487.4,500H12.6c-6.6,0-12-5.4-12-12V13.3c0-6.6,5.4-12,12-12h474.7c6.6,0,12,5.4,12,12V488
				C499.4,494.6,494,500,487.4,500z"/>
		</g>
	</g>
	<path id="XMLID_7398_" class="st1" d="M225.3,269.2c0.8-0.9,1.8-1.1,2.9-1.1c1.7,0,3.4-0.1,5,0c0.6,0,0.6-0.2,0.5-0.7
		c-2.5-10.3-5-20.7-7.5-31c-0.3-1.3-0.2-2.5,0.5-3.7c5.6-10.9,11.2-21.8,16.1-33.1c0.9-2,1.7-3.9,2.3-6c0.2-0.5,0.3-1,0.3-1.5
		c0.1-1.8,1.5-3.2,3.2-3.3c1.8-0.1,3.5,1,3.8,2.8c0.3,2.2,1.2,4.2,2.1,6.1c3.4,7.7,7.3,15.3,11.2,22.8c2.1,4,4.2,8,6.4,11.9
		c0.6,1.1,0.8,2.2,0.5,3.4c-2.3,10.4-4.6,20.8-6.9,31.1c-0.2,0.8-0.2,0.8,0.7,0.8c1.6,0,3.2,0,4.8,0c2.3,0,3.6,1.1,4,3.4
		c1.9,12.2,3.7,24.4,5.6,36.6c0.3,1.8-0.4,3.3-1.9,4c-1.4,0.7-3.1,0.4-4.1-0.7c-0.7-0.7-0.9-1.6-1.1-2.5c-1-6.7-2-13.3-3-20
		c-0.7-4.4-1.3-8.7-2-13.1c-0.1-0.5-0.2-0.7-0.7-0.6c-12,0.1-24.1,0.2-36.1,0.3c-0.5,0-0.6,0.1-0.7,0.6c-1.5,11-3,22.1-4.4,33.1
		c-0.2,1.2-0.5,2.2-1.5,3c-1.3,0.9-2.6,1-3.9,0.2c-1.3-0.8-1.9-2-1.7-3.5c0.9-6.8,1.8-13.7,2.7-20.5c0.7-5.5,1.5-11,2.2-16.4
		C224.4,270.7,224.7,269.8,225.3,269.2z M252.8,210.9c-0.1,0-0.2,0-0.2,0c0,0.2,0.1,0.4,0.1,0.7c0.1,8.8,0.2,17.6,0.2,26.4
		c0,1,0.1,1.9,0.9,2.5c0.1,0.1,0.2,0.2,0.3,0.3c1.6,2.4,1.2,5.8-1.1,7.6c-2.4,1.9-5.8,1.6-7.7-0.5c-2.1-2.4-2-5.6,0.1-7.8
		c0.3-0.3,0.4-0.6,0.4-1c-0.1-9.1-0.2-18.3-0.3-27.4c0-0.2,0.1-0.4-0.1-0.6c-0.2,0.1-0.2,0.2-0.2,0.3c-3.7,7.9-7.7,15.7-11.7,23.5
		c-0.2,0.3-0.2,0.6-0.1,1c2.5,10.5,5.1,21,7.6,31.5c0.1,0.5,0.3,0.6,0.8,0.6c5.2-0.1,10.3-0.1,15.5-0.1c0.6,0,0.8-0.1,0.9-0.7
		c2.3-10.5,4.7-21,7-31.5c0.1-0.4,0-0.7-0.2-1c-2.2-4.1-4.4-8.2-6.6-12.4C256.6,218.4,254.7,214.7,252.8,210.9z"/>
</g>
<g id="XMLID_7425_">
	<path class="st2" d="M221.1,370.2L218,378c-0.2,0.6-0.7,1-1.4,1c-0.8,0-1.5-0.7-1.5-1.5c0-0.2,0-0.5,0.1-0.6l10.5-26.5
		c0.2-0.5,0.6-1,1.4-1c0.7,0,1.2,0.5,1.4,1l10.5,26.5c0.1,0.2,0.1,0.5,0.1,0.6c0,0.8-0.6,1.5-1.5,1.5c-0.7,0-1.2-0.4-1.4-1l-3.1-7.9
		H221.1z M227.1,354.4l-5.1,13.1h10.2L227.1,354.4z"/>
	<path class="st2" d="M246.6,377.6c0,0.8-0.6,1.5-1.5,1.5s-1.5-0.6-1.5-1.5v-26.3c0-0.8,0.6-1.5,1.5-1.5h8.5c4.8,0,8.2,3.6,8.2,8.2
		c0,4.4-3,8-7.7,8.2l7.8,10.5c0.2,0.3,0.3,0.6,0.3,0.9c0,0.8-0.6,1.5-1.5,1.5c-0.4,0-0.9-0.2-1.2-0.7l-8.7-12.1h-4.3V377.6z
		 M246.6,363.6h7.2c3,0,5.1-2.4,5.1-5.5c0-3.2-2.2-5.5-5.3-5.5h-7V363.6z"/>
	<path class="st2" d="M265.4,352.6c-0.8,0-1.4-0.6-1.4-1.4s0.6-1.4,1.4-1.4h18.2c0.8,0,1.4,0.6,1.4,1.4s-0.6,1.4-1.4,1.4H276v25
		c0,0.8-0.6,1.5-1.5,1.5c-0.8,0-1.5-0.6-1.5-1.5v-25H265.4z"/>
</g>
</svg>
