<?xml version="1.0" encoding="utf-8"?>
<!-- Generator: Adobe Illustrator 21.0.0, SVG Export Plug-In . SVG Version: 6.00 Build 0)  -->
<svg version="1.1" id="Layer_1" xmlns="http://www.w3.org/2000/svg" xmlns:xlink="http://www.w3.org/1999/xlink" x="0px" y="0px"
	 viewBox="0 0 500 500" style="enable-background:new 0 0 500 500;" xml:space="preserve">
<style type="text/css">
	.st0{fill:#D71635;}
	.st1{fill:#FFFFFF;stroke:#D71635;stroke-width:2.5;stroke-miterlimit:10;}
	.st2{fill:#FFFFFF;stroke:#FFFFFF;stroke-width:0.75;stroke-miterlimit:10;}
</style>
<g>
	<g id="XMLID_1848_">
		
			<image style="overflow:visible;opacity:0.1;" width="516" height="516" xlink:href="81B07BC4.png"  transform="matrix(1 0 0 1 -8 -6)">
		</image>
		<g>
			<path class="st0" d="M486.5,498.5h-473c-6.6,0-12-5.4-12-12v-473c0-6.6,5.4-12,12-12h473c6.6,0,12,5.4,12,12v473
				C498.5,493.1,493.1,498.5,486.5,498.5z"/>
		</g>
	</g>
	<g id="XMLID_7450_">
		<g>
			<path id="XMLID_55_" class="st1" d="M210.9,222.4c0-0.4,0-0.8,0-1.1c0-8.6,0.1-17.2,0-25.8c-0.1-5,4.1-8.2,8-8.4c0.3,0,0.7,0,1,0
				c30.3,0,60.7,0,91,0c4.5,0,7.1,3,7.4,7c0,0.3,0,0.7,0,1c0,30.6,0,61.3,0,91.9c0,5.3-0.9,10.5-3.5,15.2c-3.6,6.4-9.1,10-16.4,10.7
				c-1.1,0.1-2.3,0.1-3.4,0.1c-29.7,0-59.4,0-89.2,0c-1.4,0-2.8-0.5-4.2-0.8c-0.9-0.2-1.8-0.3-2.7-0.6c-7.8-2.1-12.8-7.2-15.6-14.6
				c-1.2-3.1-1.7-6.4-1.7-9.8c0-18.8,0.1-37.5-0.1-56.3c0-5.2,4.4-8.5,8.5-8.5c3.8,0,7.6,0,11.3,0
				C204.6,222.4,207.7,222.4,210.9,222.4z M303,202.5c-25.7,0-51.2,0-76.8,0c0,0.4,0,0.8,0,1.2c0,28.5,0,57,0,85.6
				c0,0.8,0,1.7-0.1,2.5c-0.2,2-0.6,4-0.8,6c0.1,0,0.4,0,0.7,0c23.2,0,46.4,0,69.6,0c0.3,0,0.6,0,0.9,0c2.8-0.2,4.6-1.6,5.6-4.2
				c0.7-2,0.9-4.1,0.9-6.2c0-27.9,0-55.8,0-83.8C303,203.1,303,202.8,303,202.5z M197.1,237.7c0,0.2,0,0.3,0,0.5
				c0,16.4,0,32.8,0,49.1c0,2.2,0.4,4.2,1.5,6.1c2.5,4.4,7.9,4.5,10.6,0.2c1.3-2.1,1.7-4.4,1.7-6.8c0-16.1,0-32.2,0-48.3
				c0-0.3,0-0.6,0-0.9C206.2,237.7,201.7,237.7,197.1,237.7z"/>
			<path id="XMLID_54_" class="st1" d="M266.9,242.3c6.1,0,12.1,0,18.2,0c4.5,0,8,3.4,7.9,7.7c0,4.3-3.5,7.6-7.9,7.6
				c-12.2,0-24.3,0-36.5,0c-3.9,0-7.2-2.8-7.7-6.4c-0.5-4,1.8-7.6,5.6-8.6c0.7-0.2,1.5-0.3,2.2-0.3
				C254.7,242.3,260.8,242.3,266.9,242.3z"/>
			<path id="XMLID_53_" class="st1" d="M266.9,285.3c-6.1,0-12.2,0-18.3,0c-3.3,0-5.8-1.5-7.1-4.6c-1.3-3-0.8-5.8,1.3-8.3
				c1.5-1.7,3.4-2.5,5.7-2.5c12.3,0,24.6,0,36.9,0c4.2,0,7.6,3.5,7.6,7.7c0,4.2-3.4,7.6-7.7,7.6
				C279.2,285.4,273.1,285.3,266.9,285.3z"/>
			<path id="XMLID_52_" class="st1" d="M266.9,230c-6.1,0-12.2,0-18.3,0c-3.3,0-5.7-1.6-7.1-4.6c-1.3-2.9-0.8-5.7,1.3-8.2
				c1.5-1.7,3.4-2.5,5.6-2.5c12.4,0,24.7,0,37.1,0c4.2,0,7.6,3.5,7.6,7.7c0,4.2-3.4,7.6-7.6,7.7C279.2,230.1,273,230,266.9,230z"/>
		</g>
	</g>
</g>
<g id="XMLID_7435_">
	<path class="st2" d="M176.3,363.9v12.3c0,0.8-0.6,1.5-1.5,1.5c-0.8,0-1.5-0.7-1.5-1.5v-26.5c0-0.8,0.6-1.5,1.5-1.5
		c0.8,0,1.5,0.7,1.5,1.5v11.6h14.9v-11.6c0-0.8,0.6-1.5,1.5-1.5c0.8,0,1.5,0.7,1.5,1.5v26.5c0,0.8-0.6,1.5-1.5,1.5
		c-0.8,0-1.5-0.7-1.5-1.5v-12.3H176.3z"/>
	<path class="st2" d="M203.8,376.2c0,0.8-0.6,1.5-1.5,1.5c-0.8,0-1.5-0.7-1.5-1.5v-26.5c0-0.8,0.6-1.5,1.5-1.5
		c0.8,0,1.5,0.7,1.5,1.5V376.2z"/>
	<path class="st2" d="M219.2,350.6c-4.5,0-6.2,2.2-6.2,4.7c0,7.1,16.2,4.1,16.2,14.4c0,5.3-3.7,8.3-10.3,8.3c-4.9,0-8.5-2.5-10-5.3
		c-0.2-0.3-0.2-0.5-0.2-0.8c0-0.8,0.6-1.4,1.4-1.4c0.5,0,0.9,0.3,1.2,0.7c1.4,2.2,3.8,4.1,7.6,4.1c4.7,0,7.4-1.9,7.4-5.6
		c0-8-16.2-4.2-16.2-14.4c0-3.9,2.9-7.3,9.1-7.3c4.1,0,7.4,1.7,9.1,4.4c0.2,0.3,0.3,0.5,0.3,0.8c0,0.8-0.6,1.4-1.4,1.4
		c-0.4,0-0.8-0.1-1.1-0.6C224.9,352.4,222.8,350.6,219.2,350.6z"/>
	<path class="st2" d="M232.2,351.3c-0.8,0-1.4-0.6-1.4-1.4s0.6-1.4,1.4-1.4h18.2c0.8,0,1.4,0.6,1.4,1.4s-0.6,1.4-1.4,1.4h-7.6v24.9
		c0,0.8-0.6,1.5-1.5,1.5s-1.5-0.6-1.5-1.5v-24.9H232.2z"/>
	<path class="st2" d="M253.4,362.9c0-10.1,5-15,13.3-15c8.3,0,13.3,4.9,13.3,15c0,10-5,15-13.3,15
		C258.4,377.9,253.4,373,253.4,362.9z M256.4,362.9c0,8.3,3.8,12.3,10.3,12.3c6.5,0,10.3-4,10.3-12.3c0-8.4-3.8-12.4-10.3-12.4
		C260.2,350.6,256.4,354.6,256.4,362.9z"/>
	<path class="st2" d="M288.3,376.2c0,0.8-0.6,1.5-1.5,1.5c-0.8,0-1.5-0.6-1.5-1.5V350c0-0.8,0.6-1.5,1.5-1.5h8.5
		c4.7,0,8.2,3.6,8.2,8.2c0,4.4-3,7.9-7.7,8.2l7.8,10.4c0.2,0.3,0.3,0.6,0.3,0.9c0,0.8-0.6,1.5-1.5,1.5c-0.4,0-0.9-0.2-1.2-0.7
		l-8.7-12.1h-4.3V376.2z M288.3,362.2h7.1c3,0,5.1-2.4,5.1-5.5c0-3.2-2.2-5.5-5.3-5.5h-7V362.2z"/>
	<path class="st2" d="M314.9,376.2v-12.3l-8.6-13.5c-0.1-0.2-0.2-0.5-0.2-0.8c0-0.8,0.6-1.5,1.5-1.5c0.5,0,1,0.3,1.2,0.7l7.6,12.1
		l7.6-12.1c0.3-0.4,0.7-0.7,1.2-0.7c0.8,0,1.5,0.6,1.5,1.5c0,0.3-0.1,0.6-0.2,0.8l-8.6,13.5v12.3c0,0.8-0.6,1.5-1.5,1.5
		C315.5,377.7,314.9,377,314.9,376.2z"/>
</g>
</svg>
