<?xml version="1.0" encoding="utf-8"?>
<!-- Generator: Adobe Illustrator 19.0.0, SVG Export Plug-In . SVG Version: 6.00 Build 0)  -->
<svg version="1.1" id="Layer_1" xmlns="http://www.w3.org/2000/svg" xmlns:xlink="http://www.w3.org/1999/xlink" x="0px" y="0px"
	 viewBox="0 0 225 130" style="enable-background:new 0 0 225 130;" xml:space="preserve">
<style type="text/css">
	.st0{fill:#F4F4F4;}
	.st1{opacity:0.5;fill:#221F20;}
</style>
<rect id="XMLID_1_" class="st0" width="225" height="130"/>
<path id="XMLID_9492_" class="st1" d="M112.5,93.9c-16,0-28.9-12.9-28.9-29c0-15.9,12.9-28.8,28.9-28.8c16,0,28.9,12.9,28.9,29
	C141.4,81,128.4,93.9,112.5,93.9z M112.4,88.2c1.8,0,3.6-0.2,5.3-0.6c5.2-1.2,9.4-4.1,12.7-8.2c0.7-0.8,0.6-1.3,0-2.2
	c-2.4-2.9-4.8-5.9-7.2-8.8c-0.7-0.9-1.4-1.7-2.1-2.6c-0.7-0.8-1.8-0.8-2.4,0c-0.4,0.5-0.7,0.9-1.1,1.4c-0.9,1.1-2.2,1.1-3.1,0
	c-0.7-0.8-1.4-1.7-2.1-2.5c-0.8-1-1.7-2-2.5-3.1c-0.5-0.6-1.2-0.9-2.1-0.7c-0.7,0.1-1.1,0.6-1.5,1c-3,3.7-6,7.5-9,11.2
	c-1,1.3-2.1,2.5-3.1,3.8c-0.5,0.7-0.5,1.5-0.1,2.2c0.2,0.3,0.4,0.5,0.6,0.8c0.6,0.6,1.2,1.2,1.8,1.8c2.3,2.2,4.8,3.9,7.8,4.9
	C107.1,87.8,109.7,88.2,112.4,88.2z M126.9,50.5c-2.2,0-4,1.8-4,3.9c0,2.2,1.8,4,3.9,4c2.2,0,4-1.8,4-3.9
	C130.9,52.3,129.1,50.5,126.9,50.5z"/>
</svg>
