<?xml version="1.0" encoding="utf-8"?>
<!-- Generator: Adobe Illustrator 21.0.0, SVG Export Plug-In . SVG Version: 6.00 Build 0)  -->
<svg version="1.1" id="Layer_1" xmlns="http://www.w3.org/2000/svg" xmlns:xlink="http://www.w3.org/1999/xlink" x="0px" y="0px"
	 viewBox="0 0 500 500" style="enable-background:new 0 0 500 500;" xml:space="preserve">
<style type="text/css">
	.st0{fill:#FEC23E;}
	.st1{fill:#FFFFFF;}
	.st2{fill:#FFFFFF;stroke:#FFFFFF;stroke-width:0.75;stroke-miterlimit:10;}
</style>
<g>
	<g id="XMLID_1836_">
		
			<image style="overflow:visible;opacity:0.1;" width="516" height="516" xlink:href="D8B5D4A6.png"  transform="matrix(1 0 0 1 -8 -6)">
		</image>
		<g>
			<path class="st0" d="M486.5,498.5h-473c-6.6,0-12-5.4-12-12v-473c0-6.6,5.4-12,12-12h473c6.6,0,12,5.4,12,12v473
				C498.5,493.1,493.1,498.5,486.5,498.5z"/>
		</g>
	</g>
	<path id="XMLID_7441_" class="st1" d="M191.1,219.8c-2.2-4.6-2.6-9.4-2.7-14.3c0-4.1-0.1-8.2,0.6-12.3c0.4-2.4,1-4.7,2.2-6.9
		c2.2-4.1,5.7-6.1,10.2-6.6c0.8-0.1,1.6-0.1,2.4-0.1c35.9,0,71.7,0,107.6,0c2.3,0,4,1.1,4.6,3.1c0.7,2-0.1,4.2-1.9,5.2
		c-0.9,0.5-1.5,1.1-1.8,2c-0.8,2.2-1.9,4.3-2.6,6.5c-2.2,7.5-2.1,14.9,0.8,22.2c0.3,0.7,1,1.3,1.7,1.4c2.2,0.2,4,2.2,4,4.5
		c0,2.3-1.8,4.3-4.1,4.5c-1.4,0.1-2.9,0.1-4.3,0.1c-2.7,0-5.4,0-8.1,0c-0.3,0-0.7,0.3-0.8,0.6c-3.6,8.9-4.1,17.9-0.5,26.9
		c0.2,0.5,0.4,0.7,1,0.7c4.3,0,8.6,0.1,12.8,0.2c2.2,0,4.2,1.6,4.5,3.7c0.4,2.3-0.8,4.3-3,5.1c-0.1,0-0.1,0.1-0.2,0.1
		c-1.5-0.1-1.8,1-2.2,2c-2.7,7.2-3.4,14.6-1.4,22.1c0.4,1.3,0.9,2.6,1.4,3.9c0.1,0.3,0.5,0.6,0.9,0.6c2.7,0.2,4.6,2.1,4.5,4.7
		c-0.1,2.6-2.2,4.7-4.8,4.7c-38.3,0-76.6,0-114.9,0c-6.8,0-11.5-3.7-13.4-10.7c-0.9-3.2-1.1-6.4-1.2-9.7c-0.1-4.2-0.2-8.4,0.5-12.5
		c0.2-1.3,0.5-2.6,0.8-3.8c0.1-0.3,0.1-0.6,0.2-1c-2.1,0-4.2,0.1-6.2,0c-6.6-0.2-10.9-3.6-12.9-9.9c-1-3.2-1.4-6.5-1.4-9.9
		c0-3.6,0-7.2,0.2-10.8c0.2-3.3,0.9-6.5,2.4-9.4c2.2-4.2,5.7-6.5,10.4-6.8c4.4-0.2,8.7-0.1,13.1-0.1
		C190.2,219.8,190.6,219.8,191.1,219.8z M301.6,295c-3.1-9.6-2.6-19,0.5-28.5c-1.2,0.1-2.3,0.2-3.4,0.2c-34.1,0-68.2,0-102.2,0
		c-1.4,0-2.5,0.6-3.1,1.8c-0.5,1-1,2.2-1,3.3c-0.3,3.8-0.5,7.5-0.5,11.3c0,2.7,0.3,5.5,0.8,8.1c0.4,2,2.1,3.6,4.1,3.6
		c0.5,0,1,0.1,1.6,0.1c34,0,68,0,102,0C300.8,295,301.1,295,301.6,295z M289,229.1c-16.7,0-33.3,0-50,0c0,0.4,0,0.7,0,1.1
		c0,5.8,0,11.6,0,17.4c0,1.8-0.9,3.6-2.5,4.5c-1.7,0.9-3.3,0.7-4.8-0.5c-0.3-0.2-0.7-0.5-1-0.7c-3.1-2.2-6.3-4.4-9.4-6.6
		c-3,2.1-5.9,4.2-8.9,6.3c-1.6,1.1-3.5,1.6-5.4,1.2c-3.1-0.7-3.2-2.7-3.2-4.6c0-5.7,0-11.5,0-17.2c0-0.3,0-0.7,0-1
		c-0.2-0.1-0.3-0.1-0.4-0.1c-8.4,0-16.9,0-25.3,0c-2.3,0-3.4,1-4.2,3.2c-0.3,0.9-0.6,1.8-0.6,2.7c-0.2,3.9-0.4,7.8-0.3,11.7
		c0,2.2,0.3,4.4,0.7,6.5c0.5,2.5,2.6,4.3,5.2,4.3c36.3,0,72.5,0,108.8,0c0.3,0,0.7,0,1.1,0C285.6,247.8,286,238.5,289,229.1z
		 M302.6,188.7c-0.5,0-0.8,0-1.2,0c-32.6,0-65.2,0-97.8,0c-2.5,0-4.7,1.7-5.3,4.2c-0.1,0.3-0.1,0.5-0.2,0.8
		c-0.8,5.6-0.7,11.3-0.2,16.9c0.1,1.5,0.5,2.9,1.1,4.3c0.7,1.8,2.7,2.6,4.7,2.1c0-0.3,0-0.7,0-1c0-5.6,0-11.3,0-16.9
		c0-3.5,2.3-5.4,6.1-4.9c7.6,0.9,15.3,1.4,22.8,0.1c3.8-0.7,6.3,1.3,6.3,4.8c0,6.6,0,13.3,0,19.9c0,0.3,0,0.7,0,1
		c20.7,0,41.4,0,62.1,0c-1.8-5.1-2.5-10.3-2.2-15.7C299.2,198.9,300.5,193.8,302.6,188.7z M213.1,238.8c0.3-0.2,0.5-0.3,0.7-0.4
		c1.7-1.2,3.3-2.4,5-3.5c1.6-1.1,3.8-1.1,5.4,0c0.7,0.5,1.4,1,2.1,1.5c1.2,0.8,2.4,1.7,3.6,2.5v-35.5h-16.8
		C213.1,215.2,213.1,227,213.1,238.8z"/>
</g>
<g id="XMLID_7447_">
	<path class="st2" d="M160.1,385.2c0.8,0,1.4,0.6,1.4,1.4c0,0.8-0.6,1.4-1.4,1.4h-13.2c-0.8,0-1.5-0.6-1.5-1.5v-26.2
		c0-0.8,0.6-1.5,1.5-1.5c0.8,0,1.5,0.6,1.5,1.5v24.9H160.1z"/>
	<path class="st2" d="M169,386.9c0,0.8-0.6,1.5-1.5,1.5c-0.8,0-1.5-0.7-1.5-1.5v-26.5c0-0.8,0.6-1.5,1.5-1.5c0.8,0,1.5,0.7,1.5,1.5
		V386.9z"/>
	<path class="st2" d="M174.8,362c-0.8,0-1.4-0.6-1.4-1.4s0.6-1.4,1.4-1.4H193c0.8,0,1.4,0.6,1.4,1.4s-0.6,1.4-1.4,1.4h-7.6v24.9
		c0,0.8-0.6,1.5-1.5,1.5s-1.5-0.6-1.5-1.5V362H174.8z"/>
	<path class="st2" d="M200.3,388c-0.8,0-1.5-0.6-1.5-1.5v-25.9c0-0.8,0.6-1.5,1.5-1.5H214c0.7,0,1.3,0.6,1.3,1.3s-0.6,1.3-1.3,1.3
		h-12.3v10.3h9.4c0.7,0,1.3,0.6,1.3,1.3s-0.6,1.3-1.3,1.3h-9.4v10.5h12.7c0.7,0,1.3,0.6,1.3,1.3s-0.6,1.3-1.3,1.3H200.3z"/>
	<path class="st2" d="M223.9,386.9c0,0.8-0.6,1.5-1.5,1.5c-0.8,0-1.5-0.6-1.5-1.5v-26.2c0-0.8,0.6-1.5,1.5-1.5h8.5
		c4.7,0,8.2,3.6,8.2,8.2c0,4.4-3,7.9-7.7,8.2l7.8,10.4c0.2,0.3,0.3,0.6,0.3,0.9c0,0.8-0.6,1.5-1.5,1.5c-0.4,0-0.9-0.2-1.2-0.7
		l-8.7-12.1h-4.3V386.9z M223.9,372.9h7.1c3,0,5.1-2.4,5.1-5.5c0-3.2-2.2-5.5-5.3-5.5h-7V372.9z"/>
	<path class="st2" d="M248,379.5l-3.1,7.8c-0.2,0.6-0.7,1-1.4,1c-0.8,0-1.5-0.7-1.5-1.5c0-0.2,0-0.5,0.1-0.6l10.4-26.4
		c0.2-0.5,0.6-1,1.4-1c0.7,0,1.2,0.5,1.4,1l10.4,26.4c0.1,0.2,0.1,0.5,0.1,0.6c0,0.8-0.6,1.5-1.5,1.5c-0.7,0-1.2-0.4-1.4-1l-3.1-7.9
		H248z M254,363.7l-5,13.1h10.1L254,363.7z"/>
	<path class="st2" d="M265.2,362c-0.8,0-1.4-0.6-1.4-1.4s0.6-1.4,1.4-1.4h18.2c0.8,0,1.4,0.6,1.4,1.4s-0.6,1.4-1.4,1.4h-7.6v24.9
		c0,0.8-0.6,1.5-1.5,1.5s-1.5-0.6-1.5-1.5V362H265.2z"/>
	<path class="st2" d="M289.2,379.2v-18.9c0-0.8,0.6-1.5,1.5-1.5c0.8,0,1.5,0.6,1.5,1.5v18.9c0,3.4,1.2,6.6,7.1,6.6
		c5.9,0,7.1-3.2,7.1-6.6v-18.9c0-0.8,0.6-1.5,1.5-1.5c0.8,0,1.5,0.6,1.5,1.5v18.9c0,4.7-1.9,9.4-10,9.4S289.2,383.9,289.2,379.2z"/>
	<path class="st2" d="M318.8,386.9c0,0.8-0.6,1.5-1.5,1.5c-0.8,0-1.5-0.6-1.5-1.5v-26.2c0-0.8,0.6-1.5,1.5-1.5h8.5
		c4.7,0,8.2,3.6,8.2,8.2c0,4.4-3,7.9-7.7,8.2l7.8,10.4c0.2,0.3,0.3,0.6,0.3,0.9c0,0.8-0.6,1.5-1.5,1.5c-0.4,0-0.9-0.2-1.2-0.7
		l-8.7-12.1h-4.3V386.9z M318.8,372.9h7.1c3,0,5.1-2.4,5.1-5.5c0-3.2-2.2-5.5-5.3-5.5h-7V372.9z"/>
	<path class="st2" d="M340.7,388c-0.8,0-1.5-0.6-1.5-1.5v-25.9c0-0.8,0.6-1.5,1.5-1.5h13.7c0.7,0,1.3,0.6,1.3,1.3s-0.6,1.3-1.3,1.3
		h-12.3v10.3h9.4c0.7,0,1.3,0.6,1.3,1.3s-0.6,1.3-1.3,1.3h-9.4v10.5h12.7c0.7,0,1.3,0.6,1.3,1.3s-0.6,1.3-1.3,1.3H340.7z"/>
</g>
</svg>
