<?xml version="1.0" encoding="utf-8"?>
<!-- Generator: Adobe Illustrator 21.0.0, SVG Export Plug-In . SVG Version: 6.00 Build 0)  -->
<svg version="1.1" id="Layer_1" xmlns="http://www.w3.org/2000/svg" xmlns:xlink="http://www.w3.org/1999/xlink" x="0px" y="0px"
	 viewBox="0 0 500 500" style="enable-background:new 0 0 500 500;" xml:space="preserve">
<style type="text/css">
	.st0{fill:#1E2843;}
	.st1{fill:#FFFFFF;stroke:#FFFFFF;stroke-width:0.75;stroke-miterlimit:10;}
	.st2{fill:#FFFFFF;}
</style>
<g id="XMLID_6956_">
	
		<image style="overflow:visible;opacity:0.1;" width="516" height="516" xlink:href="220D6B46.png"  transform="matrix(1 0 0 1 -8 -6)">
	</image>
	<g>
		<path class="st0" d="M486.7,498.7H13.3c-6.6,0-12-5.4-12-12V13.3c0-6.6,5.4-12,12-12h473.5c6.6,0,12,5.4,12,12v473.5
			C498.7,493.3,493.3,498.7,486.7,498.7z"/>
	</g>
</g>
<g id="XMLID_7432_">
	<path class="st1" d="M146.5,366.4l-8.9-16.6v21.1c0,0.8-0.6,1.4-1.4,1.4s-1.4-0.6-1.4-1.4v-26.7c0-0.8,0.6-1.4,1.4-1.4
		c0.6,0,1.1,0.4,1.3,0.8l10.4,19.4l10.4-19.4c0.2-0.3,0.5-0.8,1.3-0.8s1.4,0.6,1.4,1.4v26.7c0,0.8-0.6,1.4-1.4,1.4s-1.4-0.6-1.4-1.4
		v-21.1l-9,16.6c-0.3,0.6-0.8,0.8-1.3,0.8C147.3,367.2,146.8,367,146.5,366.4z"/>
	<path class="st1" d="M173.9,370.8v-12.3l-8.6-13.5c-0.1-0.2-0.2-0.5-0.2-0.8c0-0.8,0.6-1.5,1.5-1.5c0.5,0,1,0.3,1.2,0.7l7.6,12.2
		l7.6-12.2c0.3-0.4,0.7-0.7,1.2-0.7c0.8,0,1.5,0.6,1.5,1.5c0,0.3-0.1,0.6-0.2,0.8l-8.6,13.5v12.3c0,0.8-0.6,1.5-1.5,1.5
		C174.5,372.2,173.9,371.6,173.9,370.8z"/>
	<path class="st1" d="M188.8,345.8c-0.8,0-1.4-0.6-1.4-1.4c0-0.8,0.6-1.4,1.4-1.4H207c0.8,0,1.4,0.6,1.4,1.4c0,0.8-0.6,1.4-1.4,1.4
		h-7.6v24.9c0,0.8-0.6,1.5-1.5,1.5c-0.8,0-1.5-0.6-1.5-1.5v-24.9H188.8z"/>
	<path class="st1" d="M215.8,358.4v12.3c0,0.8-0.6,1.5-1.5,1.5s-1.5-0.7-1.5-1.5v-26.6c0-0.8,0.6-1.5,1.5-1.5s1.5,0.7,1.5,1.5v11.6
		h14.9v-11.6c0-0.8,0.6-1.5,1.5-1.5s1.5,0.7,1.5,1.5v26.6c0,0.8-0.6,1.5-1.5,1.5s-1.5-0.7-1.5-1.5v-12.3H215.8z"/>
	<path class="st1" d="M238.9,357.5c0-10.1,5-15,13.3-15c8.3,0,13.3,4.9,13.3,15c0,10.1-5,15-13.3,15
		C243.9,372.5,238.9,367.6,238.9,357.5z M241.9,357.5c0,8.3,3.8,12.3,10.4,12.3c6.5,0,10.4-4,10.4-12.3c0-8.4-3.8-12.4-10.4-12.4
		C245.7,345.1,241.9,349.1,241.9,357.5z"/>
	<path class="st1" d="M285.5,369.1c0.8,0,1.4,0.6,1.4,1.4s-0.6,1.4-1.4,1.4h-13.2c-0.8,0-1.5-0.6-1.5-1.5v-26.2
		c0-0.8,0.6-1.5,1.5-1.5c0.8,0,1.5,0.6,1.5,1.5v24.9H285.5z"/>
	<path class="st1" d="M287.4,357.5c0-10.1,5-15,13.3-15c8.3,0,13.3,4.9,13.3,15c0,10.1-5,15-13.3,15
		C292.5,372.5,287.4,367.6,287.4,357.5z M290.4,357.5c0,8.3,3.8,12.3,10.4,12.3c6.5,0,10.4-4,10.4-12.3c0-8.4-3.8-12.4-10.4-12.4
		C294.2,345.1,290.4,349.1,290.4,357.5z"/>
	<path class="st1" d="M339.2,366.4v-6.2h-7.1c-0.7,0-1.3-0.6-1.3-1.3s0.6-1.3,1.3-1.3h8.6c0.7,0,1.3,0.6,1.3,1.3v7.5
		c0,0.5-0.2,0.9-0.6,1.4c-2.1,2.4-5,4.7-10.2,4.7c-8.3,0-13.3-4.4-13.3-15c0-10.1,5-15,13.3-15c4.1,0,7.6,1.8,9.6,4.5
		c0.2,0.3,0.3,0.6,0.3,0.9c0,0.8-0.6,1.4-1.4,1.4c-0.4,0-0.8-0.1-1.1-0.6c-1.5-2-4.2-3.6-7.4-3.6c-6.6,0-10.4,4-10.4,12.4
		c0,8.9,3.8,12.3,10.4,12.3C335.2,369.8,337.8,368.2,339.2,366.4z"/>
	<path class="st1" d="M353.6,370.8v-12.3L345,345c-0.1-0.2-0.2-0.5-0.2-0.8c0-0.8,0.6-1.5,1.5-1.5c0.5,0,1,0.3,1.2,0.7l7.6,12.2
		l7.6-12.2c0.3-0.4,0.7-0.7,1.2-0.7c0.8,0,1.5,0.6,1.5,1.5c0,0.3-0.1,0.6-0.2,0.8l-8.6,13.5v12.3c0,0.8-0.6,1.5-1.5,1.5
		C354.2,372.2,353.6,371.6,353.6,370.8z"/>
</g>
<path id="XMLID_7372_" class="st2" d="M292.4,226.4c-4.7,2.2-9.3,4.3-14,6.4c0.4,1.2,0.9,2.4,1.3,3.5c6.8,19.2,7,38.5,0.6,57.8
	c-1.1,3.4-2.7,6.7-4,10c-0.6,1.5-1.8,2.5-3.4,2.5c-1.8,0-3-0.9-3.8-2.6c-8.3-18-16.5-36.1-24.8-54.1c-0.2-0.4-0.4-0.8-0.6-1.3
	c-0.4,0.2-0.7,0.3-1,0.4c-4.7,2.2-9.4,4.3-14.1,6.5c-0.5,0.2-1,0.8-1.2,1.3c-1.5,4-3,8.1-4.5,12.1c-0.6,1.5-1.5,2.6-3,3.3
	c-6.7,3-13.4,6.1-20.1,9.2c-2.7,1.2-5.6-0.4-5.8-3.1c0-0.7,0.1-1.4,0.4-2c1.3-3.7,2.7-7.4,4.1-11.1c-0.4-0.2-0.7-0.3-1.1-0.4
	c-3.4-1.3-6.8-2.5-10.2-3.8c-1.8-0.7-2.8-1.9-2.8-3.5c0-1.8,0.9-3,2.5-3.7c6.8-3.1,13.6-6.2,20.4-9.3c1.3-0.6,2.5-0.6,3.8-0.1
	c4.1,1.6,8.3,3.1,12.5,4.6c0.4,0.1,1,0.2,1.3,0c5-2.3,10-4.6,15-6.8c0.1-0.1,0.2-0.1,0.5-0.3c-0.2-0.4-0.4-0.8-0.5-1.2
	c-8.3-18-16.5-36-24.8-54c-0.6-1.2-0.9-2.4-0.2-3.7c0.8-1.7,2.8-2.5,4.7-2c12.4,3.4,23.5,9.1,33.4,17.3c7.9,6.6,14.5,14.4,19.8,23.2
	c0.7,1.1,1.3,2.3,1.9,3.5c0.2,0.3,0.4,0.6,0.6,1c4.7-2.2,9.3-4.3,14-6.4c-0.1-0.3-0.2-0.6-0.4-0.9c-0.9-2-1.8-3.9-2.7-5.9
	c-1.4-2.9,1-6.1,4.1-5.7c7.3,0.9,14.6,1.6,21.8,2.5c3,0.3,4.5,3.4,2.8,5.9c-4.2,6.2-8.5,12.4-12.7,18.6c-1.6,2.4-5.2,1.9-6.5-0.9
	C294.5,231,293.5,228.8,292.4,226.4z M225.4,190.7c7.4,16.1,14.6,31.9,21.9,47.8c6.9-3.2,13.8-6.3,20.8-9.5
	C258.6,211.1,244.5,198.4,225.4,190.7z M272.3,293.1c6.9-19.2,6.5-38.1-0.9-57c-7,3.2-14,6.4-20.9,9.6
	C257.8,261.6,265,277.3,272.3,293.1z M198.6,256.8c0.1,0.2,0.2,0.2,0.2,0.2c2,0.7,4,1.5,5.9,2.2c2.5,1,3.4,2.8,2.5,5.4
	c-0.6,1.7-1.3,3.5-1.9,5.2c-0.1,0.2-0.1,0.5-0.2,0.9c3.6-1.7,7-3.2,10.5-4.8c0.3-0.1,0.5-0.5,0.6-0.8c0.7-2,1.5-4,2.2-6
	c0.4-1.2,0.8-2.3,1.3-3.6c-3.3-1.2-6.4-2.4-9.6-3.5c-0.4-0.1-0.9,0-1.2,0.1c-1.7,0.7-3.4,1.5-5,2.3C202,255.2,200.3,256,198.6,256.8
	z M299.8,223.9c1.7-2.5,3.4-5,5.1-7.5c-3.1-0.4-6-0.7-9-1C297.2,218.3,298.5,221,299.8,223.9z"/>
</svg>
