<?xml version="1.0" encoding="utf-8"?>
<!-- Generator: Adobe Illustrator 21.0.2, SVG Export Plug-In . SVG Version: 6.00 Build 0)  -->
<svg version="1.1" id="Layer_1" xmlns="http://www.w3.org/2000/svg" xmlns:xlink="http://www.w3.org/1999/xlink" x="0px" y="0px"
	 viewBox="0 0 500 500" style="enable-background:new 0 0 500 500;" xml:space="preserve">
<style type="text/css">
	.st0{fill:#FFFFFF;}
	.st1{font-family:'Bariol-Regular';}
	.st2{font-size:42.4355px;}
	.st3{fill:#333333;}
	.st4{enable-background:new    ;}
</style>
<g id="XMLID_6482_">
	<text transform="matrix(1 0 0 1 164.961 384.1973)" class="st0 st1 st2">All Stories</text>
</g>
<path class="st3" d="M493.7,500H6.3c-3.7,0-6.7-3-6.7-6.7V6.7C-0.4,3,2.6,0,6.3,0h487.3c3.7,0,6.7,3,6.7,6.7v486.5
	C500.4,497,497.4,500,493.7,500z"/>
<g class="st4">
	<path class="st0" d="M121,383.1c0,0.8-0.6,1.4-1.4,1.4c-0.8,0-1.4-0.6-1.4-1.4v-26c0-0.8,0.6-1.4,1.4-1.4h8.4
		c4.7,0,8.1,3.6,8.1,8.1c0,4.4-3,7.9-7.6,8.1l7.8,10.4c0.2,0.3,0.3,0.6,0.3,0.9c0,0.8-0.6,1.4-1.4,1.4c-0.4,0-0.9-0.2-1.2-0.7
		l-8.6-12H121V383.1z M121,369.2h7.1c3,0,5.1-2.4,5.1-5.5c0-3.1-2.2-5.5-5.2-5.5h-7V369.2z"/>
	<path class="st0" d="M142.7,384.2c-0.8,0-1.4-0.6-1.4-1.4v-25.7c0-0.8,0.6-1.4,1.4-1.4h13.6c0.7,0,1.3,0.6,1.3,1.3
		s-0.6,1.3-1.3,1.3h-12.2v10.2h9.3c0.7,0,1.3,0.6,1.3,1.3c0,0.7-0.6,1.3-1.3,1.3h-9.3v10.4h12.6c0.7,0,1.3,0.6,1.3,1.3
		s-0.6,1.3-1.3,1.3H142.7z"/>
	<path class="st0" d="M161.7,369.9c0-10.1,5-14.9,13.2-14.9c4,0,7.6,1.7,9.5,4.5c0.2,0.3,0.3,0.6,0.3,0.9c0,0.8-0.6,1.4-1.4,1.4
		c-0.4,0-0.8-0.1-1.1-0.6c-1.4-2-4.2-3.6-7.4-3.6c-6.5,0-10.3,3.9-10.3,12.3c0,8.8,3.7,12.2,10.3,12.2c2.8,0,5.7-1.1,7.4-3.5
		c0.3-0.4,0.8-0.6,1.1-0.6c0.8,0,1.4,0.6,1.4,1.4c0,0.3-0.1,0.6-0.3,0.8c-1.9,2.7-5.7,4.5-9.6,4.5
		C166.7,384.8,161.7,380.4,161.7,369.9z"/>
	<path class="st0" d="M188.5,369.9c0-10.1,5-14.9,13.2-14.9s13.2,4.8,13.2,14.9c0,10-5,14.9-13.2,14.9S188.5,379.9,188.5,369.9z
		 M191.5,369.9c0,8.3,3.8,12.2,10.3,12.2c6.5,0,10.3-3.9,10.3-12.2c0-8.3-3.8-12.3-10.3-12.3C195.2,357.7,191.5,361.6,191.5,369.9z"
		/>
	<path class="st0" d="M231.5,378.8l-8.9-16.5v20.9c0,0.8-0.6,1.4-1.4,1.4s-1.4-0.6-1.4-1.4v-26.4c0-0.8,0.6-1.4,1.4-1.4
		c0.6,0,1.1,0.4,1.3,0.8l10.3,19.2l10.3-19.2c0.2-0.3,0.5-0.8,1.3-0.8c0.8,0,1.4,0.6,1.4,1.4v26.4c0,0.8-0.6,1.4-1.4,1.4
		c-0.8,0-1.4-0.6-1.4-1.4v-20.9l-8.9,16.5c-0.3,0.6-0.8,0.8-1.3,0.8C232.3,379.6,231.8,379.4,231.5,378.8z"/>
	<path class="st0" d="M263.8,378.8l-8.9-16.5v20.9c0,0.8-0.6,1.4-1.4,1.4s-1.4-0.6-1.4-1.4v-26.4c0-0.8,0.6-1.4,1.4-1.4
		c0.6,0,1.1,0.4,1.3,0.8l10.3,19.2l10.3-19.2c0.2-0.3,0.5-0.8,1.3-0.8c0.8,0,1.4,0.6,1.4,1.4v26.4c0,0.8-0.6,1.4-1.4,1.4
		c-0.8,0-1.4-0.6-1.4-1.4v-20.9l-8.9,16.5c-0.3,0.6-0.8,0.8-1.3,0.8C264.6,379.6,264.1,379.4,263.8,378.8z"/>
	<path class="st0" d="M286.3,384.2c-0.8,0-1.4-0.6-1.4-1.4v-25.7c0-0.8,0.6-1.4,1.4-1.4h13.6c0.7,0,1.3,0.6,1.3,1.3
		s-0.6,1.3-1.3,1.3h-12.2v10.2h9.3c0.7,0,1.3,0.6,1.3,1.3c0,0.7-0.6,1.3-1.3,1.3h-9.3v10.4h12.6c0.7,0,1.3,0.6,1.3,1.3
		s-0.6,1.3-1.3,1.3H286.3z"/>
	<path class="st0" d="M326.7,356.7v26.4c0,0.8-0.6,1.4-1.4,1.4c-0.5,0-0.9-0.2-1.2-0.6l-14.9-22.5v21.7c0,0.8-0.6,1.4-1.4,1.4
		s-1.4-0.6-1.4-1.4v-26.4c0-0.8,0.6-1.4,1.4-1.4c0.5,0,0.9,0.3,1.1,0.6l15,22.6v-21.8c0-0.8,0.6-1.4,1.4-1.4
		S326.7,355.9,326.7,356.7z"/>
	<path class="st0" d="M340.5,355.6c8.1,0,13.1,3.8,13.1,14.3s-5,14.3-13.1,14.3h-6c-0.8,0-1.4-0.6-1.4-1.4v-25.7
		c0-0.8,0.6-1.4,1.4-1.4H340.5z M336,381.6h4.5c6.3,0,10.2-2.8,10.2-11.6c0-8.7-3.9-11.7-10.2-11.7H336V381.6z"/>
	<path class="st0" d="M360.4,384.2c-0.8,0-1.4-0.6-1.4-1.4v-25.7c0-0.8,0.6-1.4,1.4-1.4H374c0.7,0,1.3,0.6,1.3,1.3s-0.6,1.3-1.3,1.3
		h-12.2v10.2h9.3c0.7,0,1.3,0.6,1.3,1.3c0,0.7-0.6,1.3-1.3,1.3h-9.3v10.4h12.6c0.7,0,1.3,0.6,1.3,1.3s-0.6,1.3-1.3,1.3H360.4z"/>
	<path class="st0" d="M388.3,355.6c8.1,0,13.1,3.8,13.1,14.3s-5,14.3-13.1,14.3h-6c-0.8,0-1.4-0.6-1.4-1.4v-25.7
		c0-0.8,0.6-1.4,1.4-1.4H388.3z M383.8,381.6h4.5c6.3,0,10.2-2.8,10.2-11.6c0-8.7-3.9-11.7-10.2-11.7h-4.5V381.6z"/>
</g>
<g>
	<path class="st0" d="M253.5,242.9c0.5,0,0.9,0,1.3,0c14,0,28,0,42,0c3.2,0,6,1,8,3.5c2.1,2.7,2.7,5.7,1.4,8.9
		c-1.2,3.1-3.6,5.1-7,5.6c-1.1,0.2-2.3,0.2-3.5,0.2c3.5,2.7,5.2,6.2,3.7,10.4c-1.7,4.9-5.6,6.7-10.8,6.4c3.7,2.8,5.4,6.3,3.9,10.6
		c-1.7,4.9-5.6,6.6-10.8,6.3c0.4,0.3,0.5,0.5,0.7,0.6c3.1,2.3,4.4,6.1,3.3,9.8c-1,3.6-4.4,6.3-8.1,6.5c-4.5,0.2-8.9,0.2-13.4,0.2
		c-8.6,0.1-17.2,0.2-25.7,0.3c-6.5,0.1-13,0.2-19.5,0.3c-3,0-3.9-0.9-3.9-3.9c0-17.6,0-35.2,0-52.9c0-2.7,0.5-3.3,2.9-4.2
		c1.5-0.5,3.1-1,4.6-1.6c0.4-0.2,0.9-0.5,1-0.9c6.9-14.6,13.8-29.3,20.7-43.9c0.9-1.9,1.7-3.8,3.7-4.9c4.5-2.5,10.3,0.6,10.4,5.8
		c0,2.3-0.5,4.5-0.8,6.8c-1.2,9.2-2.5,18.4-3.7,27.6C253.8,241.2,253.6,242,253.5,242.9z"/>
	<path class="st0" d="M277.6,229c0.4-2.3,0.8-5,1.3-7.7c0.5-2.9,1-5.8,1.5-8.7c0.1-0.4-0.3-1-0.6-1.3c-3.8-3.7-7.6-7.4-11.4-11.1
		c-1.3-1.3-1.5-2.5-0.8-4.1c0.5-1.2,1.5-1.7,2.7-1.9c5.2-0.8,10.5-1.6,15.7-2.3c0.7-0.1,1-0.4,1.3-1c2.3-4.7,4.6-9.4,6.9-14.1
		c1-2.1,2.9-3,4.7-2c0.8,0.4,1.4,1.2,1.9,2c2.4,4.6,4.6,9.2,6.9,13.8c0.4,0.7,0.8,1.1,1.6,1.2c5.2,0.7,10.4,1.5,15.5,2.2
		c1.5,0.2,2.6,1,3.1,2.5s-0.1,2.7-1.2,3.8c-3.7,3.6-7.5,7.3-11.2,10.9c-0.6,0.5-0.7,1-0.6,1.8c0.9,5.1,1.8,10.2,2.6,15.4
		c0.3,1.5,0.1,2.8-1.3,3.8c-1.3,1-2.7,0.9-4.1,0.1c-4.7-2.5-9.3-4.9-14-7.3c-0.6-0.3-1-0.3-1.5,0c-4.7,2.5-9.4,4.8-14,7.4
		C280,233.9,277.4,231.6,277.6,229z"/>
	<path class="st0" d="M172,282.9c0-7.7,0-15.5,0-23.2c0-4.3,2.6-7.6,6.7-8.7c0.8-0.2,1.7-0.3,2.6-0.3c5.8,0,11.6,0,17.4,0
		c4.5,0,7.9,2.6,9,6.9c0.2,0.8,0.3,1.7,0.3,2.5c0,15.3,0,30.5,0,45.8c0,4.7-2.5,8-6.9,9.1c-0.9,0.2-1.9,0.3-2.9,0.3
		c-5.5,0-11,0-16.5,0c-3.9,0-7.1-1.4-8.8-5.1c-0.6-1.3-0.9-2.8-0.9-4.2C171.9,298.3,172,290.6,172,282.9z M198.2,305.4
		c0-15.1,0-30,0-45c-5.5,0-11,0-16.5,0c0,15,0,30,0,45C187.2,305.4,192.7,305.4,198.2,305.4z"/>
</g>
</svg>
