<?xml version="1.0" encoding="utf-8"?>
<!-- Generator: Adobe Illustrator 21.0.0, SVG Export Plug-In . SVG Version: 6.00 Build 0)  -->
<svg version="1.1" id="Layer_1" xmlns="http://www.w3.org/2000/svg" xmlns:xlink="http://www.w3.org/1999/xlink" x="0px" y="0px"
	 viewBox="0 0 500 500" style="enable-background:new 0 0 500 500;" xml:space="preserve">
<style type="text/css">
	.st0{fill:#FEC23E;}
	.st1{fill:#FFFFFF;}
	.st2{fill:#FFFFFF;stroke:#FFFFFF;stroke-width:0.75;stroke-miterlimit:10;}
</style>
<g>
	<g id="XMLID_2103_">
		
			<image style="overflow:visible;opacity:0.1;" width="518" height="518" xlink:href="527719B4.png"  transform="matrix(1 0 0 1 -9 -6)">
		</image>
		<g>
			<g>
				<g id="XMLID_13_">
					<path class="st0" d="M487.7,500.5H12.3c-6.6,0-12-5.4-12-12V13.1c0-6.6,5.4-12,12-12h475.4c6.6,0,12,5.4,12,12v475.4
						C499.7,495.1,494.3,500.5,487.7,500.5z"/>
				</g>
			</g>
		</g>
	</g>
	<g id="XMLID_7359_">
		<path id="XMLID_7364_" class="st1" d="M251.6,315.8c-18.9-0.3-34.2-6.1-47-17.8c-2.5-2.2-4.6-4.8-6.8-7.3
			c-0.4-0.5-0.8-0.7-1.5-0.7c-6.2,0.1-12.4-0.2-18.6-1.1c-6.3-0.9-12.4-2.3-18.1-5.4c-3.6-2-6.7-4.6-8.4-8.4
			c-2.1-4.6-1.6-9.1,0.5-13.5c2-4.2,5-7.6,8.4-10.7c6.7-6.1,14.4-10.8,22.4-14.9c1.2-0.6,1.7-1.3,2.1-2.6c4.9-20,16.4-35,34.6-44.7
			c9.3-4.9,19.3-7.4,29.8-7.5c19.2-0.2,35.6,6.6,49.2,20.1c1.4,1.3,2.5,2.9,3.9,4.2c0.3,0.3,0.8,0.6,1.2,0.6
			c5.6,0,11.1,0.1,16.6,0.8c7.1,0.8,14,2.2,20.4,5.6c2.6,1.4,5,3.2,6.8,5.6c4,5.5,3.9,11.2,0.9,17.1c-2.5,5-6.4,8.8-10.7,12.3
			c-6.2,5.1-13.1,9.2-20.2,12.9c-0.6,0.3-0.9,0.6-1,1.3c-2.5,12.5-8.1,23.5-16.8,32.8c-10.5,11.3-23.4,18.1-38.6,20.5
			C257.2,315.4,253.6,315.6,251.6,315.8z M193.7,248.5c0,0.6,0,1.3,0,1.9c0.4,9.9,3.2,19,8.3,27.5c0.4,0.7,0.9,1,1.8,0.9
			c7.2-0.7,14.4-1.2,21.6-2.1c11.9-1.6,23.7-4.1,35.3-7.2c15.3-4,30.2-9.1,44.6-15.7c0.7-0.3,1-0.7,1-1.4c0.2-4.4,0.2-8.8-0.6-13.1
			c-2.3-13.3-8.4-24.7-18.7-33.5c-12.5-10.7-27-15.2-43.3-13.4c-13.3,1.5-24.7,7.1-34,16.7C199.1,220,193.9,233.3,193.7,248.5z
			 M303.3,266.9c-29.5,12-60.1,19.5-91.8,22.6c15.1,13.4,32.5,18.4,52.2,13.5C283.2,298.2,296.2,285.6,303.3,266.9z M317.4,247.5
			c0.2,0,0.3,0,0.3-0.1c6.2-3.6,12.1-7.5,17.1-12.7c1.5-1.6,2.9-3.4,3.8-5.4c1-2.5,0.7-4.3-1.5-5.9c-1.4-1-2.9-1.9-4.5-2.5
			c-6.3-2.5-13-3.3-19.7-3.7c-1.1-0.1-2.1-0.1-3.3-0.2C314.6,226.6,317.2,236.7,317.4,247.5z M182.8,248.2c-1.8,1.1-3.3,1.9-4.8,2.9
			c-5,3.2-9.7,6.6-13.6,11c-1.4,1.6-2.6,3.3-3.3,5.3c-0.6,1.8-0.2,3.3,1.1,4.6c1.9,1.8,4.2,2.8,6.7,3.7c5.2,1.8,10.7,2.5,16.2,3
			c1.6,0.1,3.3,0.2,5.1,0.3C185.2,269.3,182.8,259.1,182.8,248.2z"/>
		<path id="XMLID_7363_" class="st1" d="M215.1,259.1c-3,0-5.5-2.4-5.4-5.5c0-2.9,2.5-5.4,5.5-5.4c3.1,0,5.5,2.5,5.5,5.6
			C220.5,256.8,218.1,259.1,215.1,259.1z"/>
		<path id="XMLID_7362_" class="st1" d="M213.8,239.8c0-3,2.5-5.4,5.5-5.4c3,0,5.4,2.5,5.4,5.4c0,3-2.5,5.5-5.5,5.5
			C216.3,245.3,213.8,242.8,213.8,239.8z"/>
		<path id="XMLID_7361_" class="st1" d="M199.9,243.2c0-3,2.5-5.5,5.5-5.4c3,0.1,5.4,2.5,5.4,5.5c0,3.1-2.5,5.5-5.6,5.4
			C202.2,248.7,199.9,246.3,199.9,243.2z"/>
		<path id="XMLID_7360_" class="st1" d="M209.8,234.6c-3,0-5.4-2.4-5.4-5.4c0-3,2.5-5.5,5.5-5.4c3,0,5.4,2.5,5.4,5.4
			C215.3,232.2,212.8,234.6,209.8,234.6z"/>
	</g>
</g>
<g id="XMLID_7424_">
	<path class="st2" d="M182.6,348.4c-4.5,0-6.2,2.2-6.2,4.7c0,7.1,16.2,4.1,16.2,14.4c0,5.4-3.7,8.3-10.3,8.3c-4.9,0-8.5-2.5-10-5.3
		c-0.2-0.3-0.2-0.5-0.2-0.8c0-0.8,0.6-1.4,1.4-1.4c0.5,0,0.9,0.3,1.2,0.7c1.4,2.2,3.9,4.1,7.6,4.1c4.7,0,7.4-1.9,7.4-5.7
		c0-8-16.2-4.3-16.2-14.4c0-4,2.9-7.3,9.1-7.3c4.1,0,7.4,1.7,9.2,4.4c0.2,0.3,0.3,0.5,0.3,0.8c0,0.8-0.6,1.4-1.4,1.4
		c-0.4,0-0.8-0.1-1.1-0.6C188.3,350.2,186.2,348.4,182.6,348.4z"/>
	<path class="st2" d="M196.4,360.8c0-10.2,5.1-15.1,13.4-15.1c4.1,0,7.6,1.8,9.7,4.6c0.2,0.3,0.3,0.6,0.3,0.9c0,0.8-0.6,1.4-1.4,1.4
		c-0.4,0-0.8-0.1-1.1-0.6c-1.5-2-4.3-3.6-7.5-3.6c-6.6,0-10.4,4-10.4,12.4c0,8.9,3.8,12.4,10.4,12.4c2.8,0,5.8-1.1,7.5-3.5
		c0.3-0.4,0.8-0.6,1.1-0.6c0.8,0,1.4,0.6,1.4,1.4c0,0.3-0.1,0.6-0.3,0.8c-1.9,2.7-5.8,4.6-9.7,4.6
		C201.5,375.8,196.4,371.3,196.4,360.8z"/>
	<path class="st2" d="M228,374.1c0,0.8-0.6,1.5-1.5,1.5s-1.5-0.7-1.5-1.5v-26.7c0-0.8,0.6-1.5,1.5-1.5s1.5,0.7,1.5,1.5V374.1z"/>
	<path class="st2" d="M236.3,375.2c-0.8,0-1.5-0.6-1.5-1.5v-26c0-0.8,0.6-1.5,1.5-1.5h13.8c0.7,0,1.3,0.6,1.3,1.3
		c0,0.7-0.6,1.3-1.3,1.3h-12.3v10.3h9.4c0.7,0,1.3,0.6,1.3,1.3c0,0.7-0.6,1.3-1.3,1.3h-9.4v10.6h12.8c0.7,0,1.3,0.6,1.3,1.3
		s-0.6,1.3-1.3,1.3H236.3z"/>
	<path class="st2" d="M277.3,347.4v26.7c0,0.8-0.6,1.5-1.5,1.5c-0.5,0-0.9-0.2-1.2-0.6l-15.1-22.8v22c0,0.8-0.6,1.4-1.4,1.4
		c-0.8,0-1.4-0.6-1.4-1.4v-26.8c0-0.8,0.6-1.4,1.4-1.4c0.5,0,0.9,0.3,1.2,0.6l15.2,22.8v-22c0-0.8,0.6-1.4,1.4-1.4
		C276.6,346,277.3,346.6,277.3,347.4z"/>
	<path class="st2" d="M282.2,360.8c0-10.2,5.1-15.1,13.4-15.1c4.1,0,7.6,1.8,9.7,4.6c0.2,0.3,0.3,0.6,0.3,0.9c0,0.8-0.6,1.4-1.4,1.4
		c-0.4,0-0.8-0.1-1.1-0.6c-1.5-2-4.3-3.6-7.5-3.6c-6.6,0-10.4,4-10.4,12.4c0,8.9,3.8,12.4,10.4,12.4c2.8,0,5.8-1.1,7.5-3.5
		c0.3-0.4,0.8-0.6,1.1-0.6c0.8,0,1.4,0.6,1.4,1.4c0,0.3-0.1,0.6-0.3,0.8c-1.9,2.7-5.8,4.6-9.7,4.6
		C287.3,375.8,282.2,371.3,282.2,360.8z"/>
	<path class="st2" d="M312.3,375.2c-0.8,0-1.5-0.6-1.5-1.5v-26c0-0.8,0.6-1.5,1.5-1.5h13.8c0.7,0,1.3,0.6,1.3,1.3
		c0,0.7-0.6,1.3-1.3,1.3h-12.3v10.3h9.4c0.7,0,1.3,0.6,1.3,1.3c0,0.7-0.6,1.3-1.3,1.3h-9.4v10.6h12.8c0.7,0,1.3,0.6,1.3,1.3
		s-0.6,1.3-1.3,1.3H312.3z"/>
</g>
</svg>
