<?xml version="1.0" encoding="utf-8"?>
<!-- Generator: Adobe Illustrator 21.0.0, SVG Export Plug-In . SVG Version: 6.00 Build 0)  -->
<svg version="1.1" id="Layer_1" xmlns="http://www.w3.org/2000/svg" xmlns:xlink="http://www.w3.org/1999/xlink" x="0px" y="0px"
	 viewBox="0 0 500 500" style="enable-background:new 0 0 500 500;" xml:space="preserve">
<style type="text/css">
	.st0{fill:#45C0AE;}
	.st1{fill:#FFFFFF;stroke:#45C0AE;stroke-miterlimit:10;}
	.st2{fill:#FFFFFF;stroke:#FFFFFF;stroke-width:0.75;stroke-miterlimit:10;}
</style>
<g>
	<g id="XMLID_2149_">
		
			<image style="overflow:visible;opacity:0.1;" width="518" height="518" xlink:href="AB0111CA.png"  transform="matrix(1 0 0 1 -9 -6)">
		</image>
		<g>
			<path class="st0" d="M487.7,500.7H12.3c-6.6,0-12-5.4-12-12V13.3c0-6.6,5.4-12,12-12h475.4c6.6,0,12,5.4,12,12v475.4
				C499.7,495.3,494.3,500.7,487.7,500.7z"/>
		</g>
	</g>
	<path id="XMLID_7401_" class="st1" d="M319.5,251c-0.1,38.3-31.3,69.8-70.3,69.4c-38-0.4-69.1-31.6-68.7-70.2
		c0.4-38.1,31.6-69.3,70.5-68.7C288.7,182.1,319.4,212.8,319.5,251z M201.3,280.4c6.7-3.6,13.6-6.6,20.8-8.8
		c7.2-2.2,14.6-3.5,22.1-4c0-3.7,0-7.3,0-10.8c-17,0-33.9,0-50.9,0C194.3,265.2,196.9,273.1,201.3,280.4z M193.5,245.2
		c16.9,0,33.8,0,50.7,0c0-3.6,0-7.2,0-10.9c-7.6-0.5-15-1.9-22.2-4c-7.2-2.2-14.1-5.1-20.7-8.7C197.5,227,193.1,240.4,193.5,245.2z
		 M255.7,267.5c15.3,0.9,29.6,5.4,43.1,12.5c3.8-5.7,8.2-19.1,7.6-23.3c-16.9,0-33.8,0-50.7,0C255.7,260.3,255.7,263.9,255.7,267.5z
		 M306.4,245.3c0.5-4.5-4.3-19.1-7.7-23.4c-6.7,3.5-13.6,6.5-20.8,8.6c-7.2,2.1-14.6,3.4-22.2,3.9c0,3.7,0,7.2,0,10.8
		C272.7,245.3,289.6,245.3,306.4,245.3z M291.9,212.5c-9.9-10.5-21.9-16.6-36.2-18.2c0,9.6,0,19.1,0,28.6
		C262.6,223.7,284.5,217.4,291.9,212.5z M255.7,307.6c14.4-1.6,26.4-7.8,36.3-18.2c-9.2-5.3-28.7-10.9-36.3-10.4
		C255.7,288.5,255.7,297.9,255.7,307.6z M208.2,212.4c11.4,5.9,23.3,9.6,36.1,10.6c0-9.6,0-19,0-28.6C230,196,218.1,202,208.2,212.4
		z M208.2,289.6c9.9,10.4,21.8,16.4,36,18c0-9.6,0-19.1,0-28.6C231.5,279.9,219.6,283.7,208.2,289.6z"/>
</g>
<g id="XMLID_7438_">
	<path class="st2" d="M188.2,362.9c-4.5,0-6.2,2.2-6.2,4.7c0,7.1,16.2,4.1,16.2,14.4c0,5.4-3.7,8.3-10.3,8.3c-4.9,0-8.5-2.5-10-5.3
		c-0.2-0.3-0.2-0.5-0.2-0.8c0-0.8,0.6-1.4,1.4-1.4c0.5,0,0.9,0.3,1.2,0.7c1.4,2.2,3.9,4.1,7.6,4.1c4.7,0,7.4-1.9,7.4-5.7
		c0-8-16.2-4.3-16.2-14.4c0-4,2.9-7.3,9.1-7.3c4.1,0,7.4,1.7,9.2,4.4c0.2,0.3,0.3,0.5,0.3,0.8c0,0.8-0.6,1.4-1.4,1.4
		c-0.4,0-0.8-0.1-1.1-0.6C193.8,364.7,191.8,362.9,188.2,362.9z"/>
	<path class="st2" d="M206.4,388.6c0,0.8-0.6,1.5-1.5,1.5s-1.5-0.6-1.5-1.5v-26.3c0-0.8,0.6-1.5,1.5-1.5h8.5c4.6,0,8.2,2.7,8.2,8.4
		c0,5.6-3.5,8.4-8.2,8.4h-7.1V388.6z M206.4,374.9h6.7c3.5,0,5.7-2,5.7-5.8c0-3.8-2.2-5.7-5.7-5.7h-6.7V374.9z"/>
	<path class="st2" d="M225.3,375.3c0-10.2,5.1-15.1,13.4-15.1s13.4,4.9,13.4,15.1c0,10.1-5.1,15-13.4,15S225.3,385.4,225.3,375.3z
		 M228.3,375.3c0,8.4,3.8,12.4,10.4,12.4c6.6,0,10.4-4,10.4-12.4c0-8.4-3.8-12.4-10.4-12.4C232.2,362.9,228.3,366.8,228.3,375.3z"/>
	<path class="st2" d="M260.4,388.6c0,0.8-0.6,1.5-1.5,1.5c-0.8,0-1.5-0.6-1.5-1.5v-26.3c0-0.8,0.6-1.5,1.5-1.5h8.5
		c4.8,0,8.2,3.6,8.2,8.2c0,4.4-3,8-7.7,8.2l7.9,10.5c0.2,0.3,0.3,0.6,0.3,0.9c0,0.8-0.6,1.5-1.5,1.5c-0.4,0-0.9-0.2-1.2-0.7
		l-8.7-12.2h-4.3V388.6z M260.4,374.5h7.2c3,0,5.2-2.4,5.2-5.5c0-3.2-2.2-5.5-5.3-5.5h-7V374.5z"/>
	<path class="st2" d="M279.2,363.5c-0.8,0-1.4-0.6-1.4-1.4s0.6-1.4,1.4-1.4h18.2c0.8,0,1.4,0.6,1.4,1.4s-0.6,1.4-1.4,1.4h-7.6v25
		c0,0.8-0.6,1.5-1.5,1.5c-0.8,0-1.5-0.6-1.5-1.5v-25H279.2z"/>
	<path class="st2" d="M312,362.9c-4.5,0-6.2,2.2-6.2,4.7c0,7.1,16.2,4.1,16.2,14.4c0,5.4-3.7,8.3-10.3,8.3c-4.9,0-8.5-2.5-10-5.3
		c-0.2-0.3-0.2-0.5-0.2-0.8c0-0.8,0.6-1.4,1.4-1.4c0.5,0,0.9,0.3,1.2,0.7c1.4,2.2,3.9,4.1,7.6,4.1c4.7,0,7.4-1.9,7.4-5.7
		c0-8-16.2-4.3-16.2-14.4c0-4,2.9-7.3,9.1-7.3c4.1,0,7.4,1.7,9.2,4.4c0.2,0.3,0.3,0.5,0.3,0.8c0,0.8-0.6,1.4-1.4,1.4
		c-0.4,0-0.8-0.1-1.1-0.6C317.7,364.7,315.6,362.9,312,362.9z"/>
</g>
</svg>
