<?xml version="1.0" encoding="utf-8"?>
<!-- Generator: Adobe Illustrator 21.0.0, SVG Export Plug-In . SVG Version: 6.00 Build 0)  -->
<svg version="1.1" id="Layer_1" xmlns="http://www.w3.org/2000/svg" xmlns:xlink="http://www.w3.org/1999/xlink" x="0px" y="0px"
	 viewBox="0 0 500 500" style="enable-background:new 0 0 500 500;" xml:space="preserve">
<style type="text/css">
	.st0{fill:#45C0AE;}
	.st1{fill:#FFFFFF;}
	.st2{fill:#FFFFFF;stroke:#FFFFFF;stroke-width:0.75;stroke-miterlimit:10;}
</style>
<g>
	<g id="XMLID_5048_">
		
			<image style="overflow:visible;opacity:0.1;" width="516" height="516" xlink:href="7B584959.png"  transform="matrix(1 0 0 1 -8 -6)">
		</image>
		<g>
			<g>
				<g id="XMLID_14_">
					<path class="st0" d="M486.5,498.5h-473c-6.6,0-12-5.4-12-12v-473c0-6.6,5.4-12,12-12h473c6.6,0,12,5.4,12,12v473
						C498.5,493.1,493.1,498.5,486.5,498.5z"/>
				</g>
			</g>
		</g>
	</g>
	<g id="XMLID_26_">
		<g>
			<path id="XMLID_101_" class="st1" d="M230.3,222.8c1.6-1.5,2.2-3.3,1.6-5.2c-0.7-2.5-3-2.9-4.3-3l-6.3-0.9
				c-6-0.9-12.1-1.7-18.1-2.5c-0.5-0.1-0.7-0.2-0.9-0.7c-3.2-6.4-6.4-12.8-9.6-19.2l-1.6-3.2c-1-2.1-2.8-3-4.9-2.6
				c-2.1,0.4-2.9,2.1-3.3,3c-3.7,7.5-7.3,14.9-11.1,22.4c0,0.1-0.2,0.2-0.2,0.2c-7.4,1.1-15.5,2.2-25.3,3.5c-2.5,0.3-3.5,1.8-3.9,3
				c-0.6,1.8-0.1,3.5,1.3,4.8l4.8,4.6c4.4,4.3,8.9,8.5,13.3,12.8c0.3,0.3,0.4,0.4,0.3,0.9c-1.4,8.3-2.9,16.5-4.3,24.8
				c-0.3,1.9,0.3,3.5,1.7,4.6c1,0.7,2.6,1.4,4.8,0.2c1.6-0.9,3.3-1.7,4.9-2.6l13.6-7.1l0,48.7l0,0.3c0,0.4,0,0.8,0,1.2
				c0.3,2.2,2,3.8,4.2,3.9c0,0,0.1,0,0.1,0c2.2,0,3.9-1.5,4.2-3.7c0.1-0.7,0.1-1.3,0.1-2.1l0-48.3l10.5,5.5c2.6,1.4,5.2,2.7,7.8,4.1
				c1.9,1,3.6,1,4.9-0.1c1.5-1.2,2-2.9,1.6-4.8c-0.1-0.2-0.1-0.4-0.1-0.7l-0.9-5c-1.1-6.3-2.2-12.7-3.2-19c0-0.1,0-0.3,0.1-0.4
				C217.9,234.7,223.8,229,230.3,222.8z M167.9,258.2c0.3-2,0.7-4,1-6l0.5-2.9c0.5-3,1-6,1.6-9.1c0.4-2.1-0.2-3.9-1.9-5.5
				c-3.7-3.5-7.4-7-11.1-10.6l-2.2-2.1l19.2-2.8c1.7-0.2,2.9-1.2,3.8-3c2.3-4.6,4.6-9.2,6.9-13.8l1.5-3.1l1.6,3.3
				c2.2,4.5,4.5,9,6.7,13.5c0.9,1.9,2.4,3,4.5,3.2c5.1,0.7,10.3,1.4,15.4,2.2l3.1,0.5l-3.9,3.7c-3.3,3.2-6.6,6.3-9.9,9.5
				c-1.3,1.2-1.8,2.8-1.5,4.5c1,5.4,1.9,10.7,2.8,16.1l0.5,2.6c-0.6-0.3-1.1-0.6-1.7-0.9l-3.4-1.7c-3.8-2-7.6-4-11.4-6
				c-1-0.5-2-0.8-2.9-0.8c-1,0-2,0.3-3,0.8c-4.4,2.4-8.8,4.7-13.3,7l-3.1,1.6L167.9,258.2z"/>
			<path id="XMLID_98_" class="st1" d="M260.8,245.2c0.4-2.5,0.9-5.6,1.5-8.6c0.3-1.3,0-2.3-1-3.2c-1.9-1.6-3.7-3.4-5.5-5.2
				c-2.5-2.3-3.4-5-2.3-8.3c1-3.1,3.3-4.6,6.4-5.1c2.8-0.4,5.6-0.8,8.4-1.3c0.7-0.1,1.5-0.7,1.9-1.3c1.3-2.4,2.5-4.9,3.7-7.3
				c1.5-2.9,3.8-4.7,7.1-4.7c3.3,0,5.6,1.8,7.1,4.8c1.2,2.5,2.5,4.9,3.6,7.4c0.4,1,1,1.3,2,1.5c3,0.4,6,0.9,9.1,1.4
				c3,0.5,4.9,2.3,5.8,5.2c0.9,2.8,0.2,5.3-1.8,7.4c-2.1,2.1-4.2,4.1-6.4,6.1c-0.8,0.7-1.1,1.4-0.8,2.5c0.5,2.6,0.9,5.3,1.4,7.9
				c0.5,3.1-0.4,5.8-2.9,7.7c-2.6,2-5.4,2.1-8.3,0.5c-2.5-1.4-5-2.7-7.6-3.9c-0.6-0.3-1.7-0.3-2.3,0c-2.7,1.3-5.3,2.6-7.8,4
				C266.8,255.2,260.7,251.5,260.8,245.2z M300.5,222.3c-0.2,0-0.4-0.1-0.6-0.1c-3.7-0.5-7.3-1.1-11-1.6c-1.2-0.2-2-0.5-2.6-1.7
				c-1.7-3.7-3.5-7.3-5.5-11.2c-1.8,3.7-3.6,7.2-5.2,10.7c-0.7,1.5-1.7,2.1-3.2,2.3c-3.8,0.5-7.6,1.1-11.2,1.6c1.9,2,3.7,4.1,5.6,6
				c4,3.8,4.1,3.8,3.1,9.2c-0.5,2.7-0.9,5.4-1.5,8.4c4-2.1,7.6-4.1,11.4-6c0.6-0.3,1.6-0.3,2.1,0c3.2,1.6,6.4,3.3,9.5,5
				c0.5,0.3,1.1,0.5,1.6,0.8c0.1-0.3,0.1-0.3,0.1-0.4c-0.5-2.7-0.9-5.4-1.4-8.1c-1-5.2-0.9-5.2,2.9-8.8
				C296.7,226.5,298.5,224.4,300.5,222.3z"/>
			<path id="XMLID_95_" class="st1" d="M252.1,260.1c3.3,0.1,5.6,1.5,7,4.2c1.4,2.7,2.7,5.4,4.1,8c0.3,0.5,0.9,1,1.5,1.1
				c2.9,0.5,5.8,0.9,8.7,1.3c3.1,0.5,5.4,2.1,6.4,5.1c1,3.1,0.2,5.7-2,7.9c-2,2-4.1,3.9-6.2,5.9c-0.7,0.6-1,1.3-0.8,2.2
				c0.5,2.7,1,5.4,1.4,8.1c0.5,3.2-0.3,6-2.9,8c-2.7,2-5.5,1.9-8.4,0.3c-2.5-1.4-5-2.7-7.6-3.9c-0.5-0.2-1.4-0.3-1.9,0
				c-2.7,1.3-5.4,2.8-8.1,4.2c-2.7,1.5-5.3,1.2-7.7-0.5c-2.4-1.7-3.7-4.1-3.2-7.1c0.4-2.9,1-5.8,1.6-8.7c0.2-1.1,0.1-2-0.8-2.8
				c-2-1.7-3.8-3.6-5.7-5.4c-2.5-2.3-3.4-5.1-2.3-8.3c1-3.1,3.3-4.6,6.4-5.1c2.8-0.4,5.6-0.8,8.4-1.3c0.6-0.1,1.3-0.6,1.6-1.2
				c1.4-2.6,2.6-5.3,4-7.9C247,261.6,249.3,260.2,252.1,260.1z M271.5,282.2c-2.4-0.4-5.4-1.1-8.4-1.2c-3.7-0.1-5.6-1.9-6.8-5.2
				c-1-2.7-2.5-5.2-4-8.2c-1.6,3.3-3.4,6.2-4.5,9.4c-1,2.7-2.7,3.6-5.5,3.8c-3.3,0.3-6.5,0.9-9.5,1.4c2,2.2,3.8,4.6,6.1,6.5
				c2.7,2.2,3.8,4.4,2.7,7.9c-0.9,2.8-1.1,5.9-1.7,9.2c3-1.6,5.8-2.7,8.2-4.4c2.9-2,5.5-2,8.4,0c2.5,1.7,5.2,2.9,8.1,4.4
				c0-0.7,0-1.1-0.1-1.5c-0.6-3.6-1.3-7.3-2-10.9c-0.2-0.9,0-1.4,0.6-2.1C266.1,288.3,268.8,285.1,271.5,282.2z"/>
			<path id="XMLID_92_" class="st1" d="M309.9,305.3c0.4-2.6,0.9-5.8,1.5-9c0.2-1.2,0.1-2.1-0.9-2.9c-2-1.8-3.9-3.7-5.8-5.5
				c-2.4-2.3-3.2-5-2.1-8.2c1-3.1,3.4-4.6,6.5-5c2.9-0.4,5.7-0.8,8.6-1.3c0.6-0.1,1.3-0.6,1.5-1.1c1.4-2.6,2.6-5.3,4-7.9
				c2.3-4.3,7.4-5.7,11.2-2.9c0.8,0.6,1.5,1.5,2,2.4c1.5,2.7,2.8,5.4,4.1,8.2c0.4,0.8,0.9,1.3,1.9,1.4c2.8,0.3,5.6,0.8,8.4,1.2
				c3.2,0.5,5.5,2.1,6.5,5.2c1,3.1,0.1,5.7-2.1,7.9c-2,2-4.2,4-6.2,6.1c-0.4,0.4-0.6,1.1-0.5,1.6c0.4,3,1,5.9,1.4,8.9
				c0.4,3.1-0.5,5.7-3,7.5c-2.5,1.8-5.2,2-8,0.5c-2.5-1.4-5.1-2.6-7.7-4c-0.8-0.5-1.5-0.5-2.4,0c-2.6,1.4-5.2,2.7-7.8,4.1
				C316.1,315.2,309.9,311.5,309.9,305.3z M310,282.3c0.3,0.4,0.5,0.6,0.7,0.8c2.9,2.8,5.7,5.5,8.5,8.3c0.4,0.4,0.7,1.3,0.6,1.9
				c-0.4,2.6-0.9,5.3-1.4,7.9c-0.3,1.4-0.5,2.9-0.8,4.6c3.3-1.8,6.4-3.2,9.2-4.9c2.2-1.4,4-1.5,6.2-0.1c2.9,1.9,6.1,3.3,9.4,5
				c-0.8-4.2-1.4-8.2-2.2-12.1c-0.2-1.2,0-2,0.9-2.8c1.8-1.6,3.6-3.4,5.4-5.1c1.1-1.1,2.3-2.1,3.5-3.1c-0.1-0.2-0.2-0.3-0.3-0.5
				c-3.7-0.6-7.5-1.3-11.3-1.6c-1.9-0.2-2.8-1-3.4-2.6c-0.1-0.3-0.2-0.5-0.3-0.7c-1.5-3.1-3.1-6.2-4.8-9.7c-2,4-3.8,7.6-5.5,11.3
				c-0.5,1.1-1.2,1.5-2.3,1.6c-1.7,0.1-3.3,0.4-4.9,0.7C314.9,281.6,312.6,281.9,310,282.3z"/>
		</g>
	</g>
</g>
<g id="XMLID_4159_">
	<path class="st2" d="M198.3,368.4c-0.8,0-1.4-0.6-1.4-1.4c0-0.8,0.6-1.4,1.4-1.4h18.1c0.8,0,1.4,0.6,1.4,1.4c0,0.8-0.6,1.4-1.4,1.4
		h-7.6v24.8c0,0.8-0.6,1.4-1.4,1.4c-0.8,0-1.4-0.6-1.4-1.4v-24.8H198.3z"/>
	<path class="st2" d="M221.7,385.9l-3.1,7.8c-0.2,0.6-0.7,1-1.4,1c-0.8,0-1.4-0.7-1.4-1.4c0-0.2,0-0.5,0.1-0.6l10.4-26.2
		c0.2-0.5,0.6-1,1.4-1c0.7,0,1.2,0.5,1.4,1l10.4,26.2c0.1,0.2,0.1,0.5,0.1,0.6c0,0.8-0.6,1.4-1.5,1.4c-0.7,0-1.2-0.4-1.4-1l-3.1-7.8
		H221.7z M227.6,370.2l-5,13h10.1L227.6,370.2z"/>
	<path class="st2" d="M258.6,391.6c0.8,0,1.4,0.6,1.4,1.4s-0.6,1.4-1.4,1.4h-13.1c-0.8,0-1.4-0.6-1.4-1.4v-26.1
		c0-0.8,0.6-1.4,1.4-1.4c0.8,0,1.4,0.6,1.4,1.4v24.8H258.6z"/>
	<path class="st2" d="M266,394.3c-0.8,0-1.4-0.6-1.4-1.4v-25.7c0-0.8,0.6-1.4,1.4-1.4h13.7c0.7,0,1.3,0.6,1.3,1.3
		c0,0.7-0.6,1.3-1.3,1.3h-12.2v10.3h9.4c0.7,0,1.3,0.6,1.3,1.3c0,0.7-0.6,1.3-1.3,1.3h-9.4v10.5h12.7c0.7,0,1.3,0.6,1.3,1.3
		c0,0.7-0.6,1.3-1.3,1.3H266z"/>
	<path class="st2" d="M295.2,367.8c-4.5,0-6.2,2.2-6.2,4.6c0,7.1,16.1,4,16.1,14.3c0,5.3-3.7,8.3-10.2,8.3c-4.8,0-8.5-2.5-9.9-5.2
		c-0.2-0.3-0.2-0.5-0.2-0.8c0-0.8,0.6-1.4,1.4-1.4c0.5,0,0.9,0.3,1.2,0.7c1.4,2.2,3.8,4,7.6,4c4.7,0,7.3-1.9,7.3-5.6
		c0-8-16.1-4.2-16.1-14.3c0-3.9,2.9-7.3,9.1-7.3c4,0,7.3,1.7,9.1,4.4c0.2,0.3,0.3,0.5,0.3,0.8c0,0.8-0.6,1.4-1.4,1.4
		c-0.4,0-0.8-0.1-1.1-0.6C300.8,369.5,298.8,367.8,295.2,367.8z"/>
</g>
</svg>
